<?xml version="1.0" encoding="UTF-8"?><svg id="Layer_1" xmlns="http://www.w3.org/2000/svg" viewBox="0 0 57 58"><defs><style>.cls-1{fill:#1727a2;fill-rule:evenodd;}</style></defs><path class="cls-1" d="m31.53.16c-1.43.39-1.46.41-9.73,8.63-5.01,4.98-7.9,7.94-8.06,8.23-.32.62-.34,1.77-.04,2.34.51.98,1.3,1.48,2.47,1.56l.76.05v5.28l.3.23c.39.31.75.3,1.14-.04l.32-.27.03-3.27.03-3.27,6.98-6.99,6.98-6.99,7.03,7.02,7.03,7.02.03,5.83.03,5.83.25.25c.33.33.86.32,1.22-.02l.28-.27v-10.35h.65c.82,0,1.36-.23,1.93-.83.5-.52.81-1.28.81-1.98,0-1.05-.05-1.1-8.44-9.49C38.23,3.38,35.49.72,35.17.56c-1.13-.56-2.48-.71-3.64-.4Zm11.18,1.47c-.52.22-1.09.78-1.39,1.35-.17.33-.24.67-.24,1.23,0,.68.03.8.26.99.34.27.82.28,1.15,0,.19-.15.28-.39.35-.88.13-.94.31-1.07,1.57-1.07,1.53,0,1.46-.17,1.5,3.55l.03,3.04.32.27c.41.35.81.35,1.16,0l.28-.28v-3.18c0-2.41-.04-3.27-.15-3.55-.25-.59-.76-1.12-1.37-1.4-.49-.23-.74-.27-1.81-.26-.85,0-1.37.06-1.64.17Zm-8.41.54c.41.22,2.74,2.49,8.22,7.98,6.91,6.93,7.65,7.71,7.65,8.03,0,.55-.43.99-.96.97-.41-.01-.73-.32-8.01-7.6-4.17-4.18-7.7-7.65-7.83-7.72-.32-.16-1-.16-1.32,0-.14.07-3.67,3.55-7.84,7.73-7.33,7.33-7.61,7.6-8.01,7.59-.71-.02-1.15-.71-.83-1.32.23-.44,15.37-15.43,15.81-15.66.65-.34.92-.39,1.76-.35.61.03.93.11,1.36.34Zm-5.58,19.45c-.96.2-1.81.87-2.26,1.78-.29.59-.32.79-.36,2.04-.03.91,0,1.51.09,1.72.16.39.64.61,1.06.51.53-.13.64-.43.64-1.8,0-1.39.14-1.84.71-2.26.31-.23.45-.23,4.01-.23,5.09,0,4.77-.25,4.77,3.74v2.68l.33.33c.41.41.68.42,1.13.04l.35-.29v-2.8c0-3.19-.06-3.51-.8-4.36-.25-.28-.73-.65-1.09-.83l-.65-.32-3.73-.02c-2.05-.01-3.94.02-4.21.08Zm-9.36,6.52c-1.12.25-1.95.61-3.31,1.43-2.1,1.27-4.72,3.58-5.2,4.58-.14.3-.15.4-.01.68.09.18.29.39.45.47.45.22.87,0,1.51-.77,1.27-1.54,4.07-3.63,5.83-4.33,2.62-1.05,5.51-.49,7.91,1.52,1.06.89,2.22,1.51,3.15,1.68.34.06,2.01.12,3.73.12,2.8,0,3.17.02,3.57.21,1.26.59,1.79,2.11,1.14,3.3-.15.28-.34.65-.42.82-.3.66-.57.7-4.71.77l-3.77.06-.22.27c-.31.38-.27.77.12,1.16l.34.34,3.76-.04c4.22-.04,4.26-.05,5.37-.89.51-.38.86-.53,2.08-.85,3.7-.98,6.52-2.09,9.02-3.56,1.55-.91,2.98-1.02,4.35-.34,1.31.64,1.51,1.22.7,1.99-1.35,1.3-5.5,4.16-8.55,5.9-4.1,2.34-6.66,3.25-10,3.56-.68.06-4.17.19-7.74.29-3.58.1-6.7.2-6.95.24-.25.03-.54.14-.65.24-.3.27-.26.89.07,1.22.25.25.34.27,1.05.22.43-.03,3.62-.13,7.1-.22,3.48-.09,6.64-.2,7.01-.23,3.41-.31,5.9-1.09,9.26-2.91,3.14-1.7,5.93-3.47,8.54-5.41,2.83-2.11,3.1-2.45,3.1-3.79,0-.96-.17-1.33-.91-1.97-1.03-.91-2.34-1.37-3.91-1.37-1.21,0-2.2.28-3.38.97-2.01,1.17-4.93,2.38-7.53,3.11-.67.19-1.21.34-1.22.34,0,0,0-.47-.01-1.05,0-.9-.04-1.14-.3-1.7-.39-.83-1.21-1.65-2.07-2.08l-.68-.33-3.62-.06-3.62-.06-.73-.35c-.4-.19-.96-.56-1.24-.8-1.16-1.03-2.34-1.69-3.9-2.19-1.06-.33-3.37-.42-4.52-.16Zm-13.12,7.64c-.81.17-1.41.54-3.83,2.36C.3,39.73.03,39.97,0,40.28c-.03.31.76,1.4,6.37,8.9,3.52,4.7,6.49,8.61,6.58,8.69.41.33.76.16,2.92-1.39,1.17-.84,2.38-1.77,2.67-2.05,1.18-1.15,1.65-3.04,1.11-4.47-.17-.46-1.51-2.33-4.87-6.82-4.84-6.48-5.1-6.77-6.22-7.16-.63-.22-1.72-.3-2.33-.17Zm1.59,1.72c.25.07.6.23.78.36.38.27,8.92,11.67,9.3,12.42.35.68.33,1.31-.05,2.03-.26.49-.6.79-2.2,2-1.04.78-1.94,1.42-1.99,1.42-.1,0-11.28-14.83-11.39-15.11-.04-.11.55-.61,1.84-1.55,2.34-1.72,2.67-1.85,3.71-1.57Z"/></svg>