<?xml version="1.0" encoding="UTF-8"?><svg id="Layer_1" xmlns="http://www.w3.org/2000/svg" viewBox="0 0 40.43 32.81"><defs><style>.cls-1{fill:#fff;}</style></defs><path class="cls-1" d="m39.68,32.8h-7.58c-.72,0-1.38-.46-1.56-1.16-.05-.19-.08-.42-.08-.67v-8.27s.41-2.75-4.24-.61-6.49,7.09-6.99,9.03c-.5,1.94-1.88,1.68-4.35,1.68H1.74c-.56,0-1.11-.28-1.38-.77-.2-.36-.36-.89-.36-1.65v-13.92c0-.7.22-1.36.36-2.05C1.47,9.07,6.41,1.85,14.92,0h6.4c.57,0,1.12.29,1.4.79.28.5.54,1.39.54,2.83v3.04c0,.86-.46,1.6-1.32,1.61h-.26c-1.72,0-7.9-.27-11.23,7.69-.06.15-.13.3-.16.47-.06.31-.16.86-.18,1.17-.03.46,0,5.77,0,5.77,0,0,.59,1.2,1.35.03,1.91-2.9,11.11-11.6,17.11-11.6h10.24c.89,0,1.62.72,1.62,1.62h0v18.56s.09.82-.76.82h0Z"/></svg>