<?xml version="1.0" encoding="UTF-8"?><svg id="Layer_1" xmlns="http://www.w3.org/2000/svg" viewBox="0 0 60 60"><defs><style>.cls-1{fill:#1727a2;fill-rule:evenodd;}</style></defs><path class="cls-1" d="m34.48,3.43c-4.29,1.88-7.92,3.53-8.07,3.68-.26.25-.27.33-.27,2.57s0,2.31.3,2.61c.39.39.72.37,1.7-.07.44-.2.83-.36.86-.36s.05,1.25.05,2.78v2.78H2.53l-.3.3c-.29.29-.3.35-.3,2.12s0,1.83.3,2.12c.29.29.36.3,1.94.3h1.64v4.84h-1.64c-1.58,0-1.65.01-1.94.3-.29.29-.3.35-.3,2.12s0,1.83.3,2.12c.24.24.42.3.97.3h.67v23.23h-1.64c-1.58,0-1.65.01-1.94.3-.29.29-.3.35-.3,2.12s0,1.83.3,2.12l.3.3h58.81l.3-.3c.29-.29.3-.35.3-2.12s0-1.83-.3-2.12c-.29-.29-.36-.3-1.94-.3h-1.64v-23.23h.67c.55,0,.72-.05.97-.3.29-.29.3-.35.3-2.12s0-1.83-.3-2.12c-.24-.24-.42-.3-.97-.3h-.67v-7.62c0-4.19.02-7.62.05-7.62s.41.16.86.36c.98.44,1.31.45,1.7.07.29-.29.3-.32.3-2.59,0-2.01-.03-2.32-.21-2.54C58.57,6.85,42.93-.01,42.54,0c-.14,0-3.77,1.55-8.06,3.43Zm15.26,1.72c3.88,1.7,7.13,3.12,7.21,3.16.1.04.15.35.15.94v.88l-7.15-3.13c-3.93-1.72-7.24-3.13-7.36-3.13-.17,0-8.84,3.74-13.83,5.97l-.7.31v-1.77l7.17-3.15c3.94-1.73,7.23-3.15,7.3-3.16.07,0,3.31,1.38,7.2,3.08Zm-1.33,3.29l5.73,2.51.03,8.07.03,8.07h-23.23l.03-8.07.03-8.07,5.69-2.51c3.13-1.38,5.75-2.51,5.82-2.52.07,0,2.71,1.12,5.87,2.5Zm-16.17,4.44l-.3.3v7.52l.3.3.3.3h8.49l.3-.3.3-.3v-7.52l-.3-.3-.3-.3h-8.49l-.3.3Zm11.61,0l-.3.3v7.52l.3.3.3.3h8.49l.3-.3.3-.3v-7.52l-.3-.3-.3-.3h-8.49l-.3.3Zm-4.17,4.06v2.42h-5.81v-4.84h5.81v2.42Zm11.61,0v2.42h-5.81v-4.84h5.81v2.42Zm-22.26,2.9v.48H3.87v-.97h25.16v.48Zm-17.42,4.84v2.42h-3.87v-4.84h3.87v2.42Zm5.81,0v2.42h-3.87v-4.84h3.87v2.42Zm5.81,0v2.42h-3.87v-4.84h3.87v2.42Zm5.81,0v2.42h-3.87v-4.84h3.87v2.42Zm27.1,4.84v.48H3.87v-.97h52.26v.48Zm-27.1,14.03v11.61h-1.94v-6.78c0-6.03.02-6.78.19-6.78.1,0,.32-.13.48-.3.29-.29.3-.35.3-2.12s0-1.83-.3-2.12l-.3-.3H7.37l-.3.3c-.29.29-.3.35-.3,2.12s0,1.83.3,2.12c.16.16.38.3.48.3.17,0,.19.74.19,6.78v6.78h-1.94v-23.23h23.23v11.61Zm25.16,0v11.61h-11.61v-12.96l-.3-.3-.3-.3h-9.46l-.3.3-.3.3v12.96h-.97v-23.23h23.23v11.61Zm-28.06-4.36v.48H8.71v-.97h17.42v.48Zm-.97,9.19v6.78h-15.48v-13.55h15.48v6.78Zm18.68-6.48l-.3.3v7.52l.3.3.3.3h8.49l.3-.3.3-.3v-7.52l-.3-.3-.3-.3h-8.49l-.3.3Zm-3.2,7.45v5.81h-6.77v-11.61h6.77v5.81Zm10.65-3.39v2.42h-5.81v-4.84h5.81v2.42Zm-13.25,1.75c-.28.28-.3.38-.3,1.64s.02,1.36.3,1.64c.19.19.44.3.67.3s.48-.11.67-.3c.28-.28.3-.38.3-1.64s-.02-1.36-.3-1.64c-.19-.19-.44-.3-.67-.3s-.48.11-.67.3Zm20.03,9.87v.48H1.94v-.97h56.13v.48Z"/></svg>