<?xml version="1.0" encoding="UTF-8"?><svg id="Layer_1" xmlns="http://www.w3.org/2000/svg" viewBox="0 0 65 60"><defs><style>.cls-1{fill:#1727a2;fill-rule:evenodd;}</style></defs><path class="cls-1" d="m15.01,2.51c-5.05,2.75-5.52,3.08-5.79,4.11-.21.76-.07,3.43.26,4.95.8,3.73,2.92,7.87,5.46,10.65l.66.73-.32,1.44c-.76,3.43-.78,6.69-.06,10.07.14.67.27,1.26.28,1.31.01.06-.47.29-1.07.52-.6.23-1.27.55-1.49.71l-.41.29-.14-.36c-.49-1.29-1.21-2.11-2.35-2.67l-.76-.37H3.18l-.73.37c-.87.44-1.78,1.38-2.17,2.22Q0,37.08,0,46.72v9.65l.35.72c.43.88,1.27,1.68,2.23,2.13.72.34.75.34,3.65.34s2.93,0,3.65-.34c1.43-.67,2.45-1.97,2.61-3.32.05-.39.13-.61.22-.58.08.03,1.94.87,4.15,1.87,2.2,1,4.41,1.92,4.9,2.05,1.36.37,2.65.51,5.85.64,3.78.15,18.17.15,19.36,0,1.1-.14,2.18-.51,2.91-.99.5-.32,12.47-11.35,13.78-12.68.31-.32.74-.95.96-1.41.35-.74.39-.96.39-1.98s-.04-1.24-.41-2.02c-.7-1.5-2.04-2.53-3.76-2.91-.4-.09-.73-.17-.73-.18s.15-.45.32-.97c.66-1.95.97-3.83,1.04-6.45.09-3.27-.16-5.21-1.07-8.05-.91-2.86-3.03-6.66-3.93-7.04-.87-.36-1.7.2-1.7,1.15,0,.34.21.77.83,1.73,1.42,2.18,2.43,4.63,3,7.32.24,1.11.28,1.72.29,3.99,0,3.04-.15,4.16-.91,6.52-.58,1.79-.94,2.52-1.47,2.9-.23.16-2.39,2.13-4.81,4.37-2.41,2.24-4.59,4.17-4.83,4.28-.39.18-1.47.21-8.71.24-5.64.03-8.42,0-8.74-.1-1.34-.39-1.53-2.12-.31-2.79.35-.19,1.01-.22,5.42-.28l5.03-.06.84-.42c1.53-.76,2.52-2.22,2.6-3.84.04-.8.06-.85.47-1.1.88-.54,1.38-1.02,1.88-1.76,2.15-3.23.74-7.49-2.91-8.82-.63-.23-1.14-.27-4.27-.34-3.99-.09-3.95-.08-4.86-1.07-1.44-1.57-1.02-3.97.86-5.02l.68-.38,5.45-.06,5.45-.06.31-.36c.43-.51.41-1.12-.06-1.65l-.37-.42-3.13-.04-3.13-.04v-3.58l-.37-.37c-.42-.42-.95-.49-1.52-.19-.55.29-.65.69-.65,2.51v1.66h-.75c-3.16,0-5.65,2.04-6.15,5.02-.51,3.11,1.82,6.19,5.01,6.61.51.07,2.16.12,3.67.13,2.69,0,2.75.01,3.4.33,1.86.93,2.37,3.31,1.05,4.92-.2.24-.56.55-.81.68l-.44.24-.49-.4c-.27-.22-.78-.53-1.13-.69l-.64-.29-10.71-.03-10.71-.03-.13-.48c-.8-2.99-.95-6.12-.44-9.1.11-.67.22-1.22.23-1.24.01-.01.41.17.89.42,1.17.59,1.7.59,2.87-.04,2.77-1.48,5.4-4.54,7.32-8.52.95-1.97,1.47-3.49,1.84-5.37.14-.75.26-1.39.26-1.42s.48-.2,1.07-.38c4.3-1.32,9.03-1.18,13.24.38,1.99.74,2.43.74,2.87.03.5-.83.18-1.57-.88-2.04-4.58-2.01-10.64-2.41-15.41-1.01l-.84.24-.16-.59c-.1-.39-.32-.74-.64-1.04C29.6,4.87,20.76.08,20.16,0c-.39-.05-1.08.29-5.15,2.51Zm9.21,2.44c2.21,1.2,4.07,2.23,4.14,2.3.17.17.09,2.34-.13,3.44-.49,2.48-1.72,5.35-3.3,7.73-.93,1.4-2.89,3.43-4,4.14l-.82.53-.62-.35c-1.98-1.13-4.35-3.99-5.89-7.11-1.19-2.41-1.8-4.65-1.94-7.04l-.07-1.28,4.18-2.26c2.3-1.24,4.23-2.26,4.3-2.26.06,0,1.92.98,4.13,2.18Zm-2.73,5.74l-1.99,2.04-.78-.7c-.43-.39-.91-.73-1.06-.78-.77-.2-1.56.41-1.56,1.21,0,.62.18.85,1.72,2.25,1.11,1.01,1.24,1.09,1.74,1.09.54,0,.56-.02,3.05-2.59,1.61-1.66,2.55-2.72,2.62-2.97.24-.88-.29-1.6-1.19-1.6-.54,0-.58.03-2.54,2.04Zm29.7.63c-.77.77-.35,2,.72,2.14.45.06.58.02.95-.31.36-.32.43-.47.43-.92s-.07-.6-.41-.91c-.56-.51-1.18-.51-1.69,0ZM8.97,36.6c.24.12.57.42.73.66l.29.43v9.02c0,8.83,0,9.03-.26,9.44-.16.26-.48.52-.84.68-.52.23-.8.25-2.83.21-2.44-.05-2.72-.12-3.27-.85-.25-.33-.26-.57-.29-9.35-.03-8.59-.02-9.03.2-9.45.13-.25.46-.58.73-.73.46-.27.65-.29,2.79-.29,1.93,0,2.36.03,2.73.22Zm30.41,1.86c1.33.7,1.41,2.39.15,3.17-.48.3-.51.3-5.5.36l-5.02.06-.79.37c-1.55.72-2.49,2.12-2.5,3.72-.01,1.6.92,3.03,2.44,3.75l.72.34,8.55.04c9.37.04,9.75.01,10.98-.7.34-.2,2.62-2.22,5.08-4.51,2.46-2.28,4.65-4.25,4.88-4.37.98-.53,2.35-.39,3.2.31.52.43.95,1.23.95,1.79,0,.98-.14,1.14-7.14,7.63-4.17,3.87-6.94,6.35-7.28,6.52-.89.43-2.32.51-9.11.51-10.96,0-15.49-.23-17.12-.86-.34-.13-2.58-1.12-4.98-2.2l-4.36-1.96v-11.81l.68-.62c.37-.34,1.05-.81,1.51-1.03,1.6-.79,1.28-.77,13.22-.78h10.89s.56.29.56.29Z"/></svg>