<?xml version="1.0" encoding="UTF-8"?><svg id="Layer_1" xmlns="http://www.w3.org/2000/svg" viewBox="0 0 48 44"><defs><style>.cls-1{fill:#1727a2;fill-rule:evenodd;}</style></defs><path class="cls-1" d="m16.37,4.22c-4.8,3.14-6.47,4.29-6.55,4.47-.2.46.29,1.02.77.87.1-.03,2.94-1.85,6.3-4.05,3.36-2.2,6.17-4.03,6.24-4.07.18-.11,21.72,14.01,21.87,14.32.15.33.13.7-.04.95-.2.27-.69.48-.98.41-.12-.03-4.73-3.01-10.24-6.62-8.49-5.56-10.08-6.57-10.42-6.6-.39-.04-.5.02-10.39,6.5-5.5,3.6-10.12,6.59-10.27,6.66-.39.16-.76.07-1.03-.25-.27-.31-.31-.84-.09-1.13.07-.1,1.43-1.03,3.02-2.08,3.11-2.05,3.23-2.16,2.93-2.68-.11-.19-.22-.25-.5-.28-.33-.03-.58.11-3.09,1.76-1.5.98-2.89,1.93-3.09,2.1-1.59,1.4-.6,3.98,1.53,3.98.64,0,1.01-.17,2.28-1,.55-.36,1.02-.66,1.04-.66s.05,5.2.05,11.55v11.55h-1.39c-1.67,0-2.16.11-2.67.62-.81.82-.86,1.93-.12,2.77.64.74-1.36.68,21.88.65l20.75-.03.41-.28c.52-.35.92-1.1.92-1.7,0-.86-.7-1.73-1.55-1.94-.23-.06-1.03-.1-1.78-.1h-1.37v-1.74c0-1.62-.01-1.76-.19-1.99-.23-.29-.62-.32-.94-.07-.22.17-.22.21-.25,1.99l-.03,1.81h-6.46v-4.99h6.85c5.54,0,6.91-.02,7.16-.12.4-.16.88-.71,1.01-1.14.07-.24.09-2.27.07-6.68l-.03-6.33-.22-.35c-.12-.19-.39-.46-.6-.6l-.38-.25-6.91-.03-6.91-.03-.05-1.04c-.06-1.27-.27-1.84-.9-2.38-.43-.38-1.12-.64-1.66-.64s-1.23.27-1.66.64c-.63.54-.84,1.11-.9,2.38l-.05,1.04-6.91.03-6.91.03-.38.25c-.21.14-.48.41-.6.6l-.22.35-.03,6.33c-.02,4.41,0,6.44.07,6.68.11.37.55.92.88,1.11.12.07.77.13,1.65.16l1.45.05.02,2.47.03,2.47H7.1V15.84l8.07-5.28,8.07-5.28,8.07,5.28,8.07,5.28v.99c0,.55.05,1.1.11,1.22.15.32.54.47.85.33.32-.14.45-.45.45-1.06,0-.28.02-.5.04-.5s.55.33,1.17.73c1.3.85,1.61.97,2.36.92,1.44-.1,2.43-1.51,2.02-2.88-.09-.29-.29-.67-.46-.86-.18-.2-4.82-3.3-11.23-7.5C24.35.46,23.73.07,23.29.04l-.47-.04-6.45,4.22Zm6.12,4.11c-2.42.41-4.04,2.87-3.43,5.2.38,1.45,1.41,2.54,2.83,3.03.68.23,1.97.24,2.61.03,1.62-.54,2.73-1.84,2.99-3.46.32-2.03-1.01-4.09-3.02-4.66-.63-.18-1.39-.23-1.98-.13Zm.09,2.44v1.06h-2.25l.15-.35c.32-.75.78-1.23,1.54-1.61q.56-.28.57.89Zm1.95-.84c.71.36,1.33,1.05,1.48,1.65l.06.25h-2.18v-1.06c0-.67.04-1.06.1-1.06.05,0,.3.1.54.22Zm-1.95,4.36c0,1.07,0,1.07-.21,1.01-.85-.25-1.95-1.37-1.95-1.98,0-.06.4-.1,1.08-.1h1.08v1.07Zm3.47-.99c0,.44-.73,1.37-1.35,1.72-.83.47-.81.49-.81-.73v-1.07h1.08c.59,0,1.08.04,1.08.08Zm4.92,3.62c.42.33.53.64.53,1.6v.88h-2.35v-.88c0-.96.1-1.28.53-1.6.16-.13.39-.19.65-.19s.48.07.65.19Zm15.52,3.99c.09.08.11,1.6.11,6.28,0,5.48-.02,6.18-.15,6.31-.13.13-1.73.15-16.13.15s-16-.01-16.13-.15c-.13-.13-.15-.83-.15-6.31,0-4.67.03-6.19.11-6.28.16-.16,32.17-.16,32.34,0Zm-27.09,2.83c-.2.19-.2.25-.2,3.43s0,3.24.19,3.42c.22.22.63.24.92.04.2-.14.21-.2.21-1.48v-1.34h.83l.78,1.46c.76,1.4.79,1.46,1.1,1.49.36.03.76-.26.76-.57,0-.16-.65-1.43-1.14-2.25l-.18-.29.4-.23c1.03-.59,1.23-2.35.36-3.2-.47-.46-.88-.57-2.46-.63-1.31-.05-1.38-.05-1.57.14Zm5.99-.05l-.23.12-.02,3.37c-.02,3.09-.01,3.38.14,3.49.12.08.7.12,2.11.12,1.64,0,1.97-.02,2.09-.15.17-.17.19-.52.05-.79-.09-.17-.21-.18-1.6-.18h-1.5v-1.94h.73c.85,0,1.15-.14,1.15-.54s-.15-.48-1.05-.48h-.83v-1.94h1.41c1.28,0,1.42-.02,1.6-.18.1-.1.19-.29.19-.42s-.08-.31-.19-.42c-.17-.17-.31-.18-1.99-.18-1.27,0-1.88.04-2.04.12Zm5.59-.02c-.15.04-.31.13-.35.19-.04.07-.08,1.56-.08,3.33,0,3.09,0,3.22.19,3.4.23.23.66.24.93.02.19-.15.2-.25.22-2.13l.02-1.97,1.11,2.05c1.15,2.11,1.23,2.22,1.8,2.22.13,0,.31-.08.42-.18.18-.18.19-.31.19-3.4,0-2.47-.03-3.26-.12-3.38-.14-.19-.84-.23-1.05-.06-.11.09-.14.48-.16,2.11l-.03,2-.98-1.86c-.54-1.03-1.05-1.95-1.13-2.06-.19-.24-.63-.37-.98-.27Zm5.67-.04c-.21.08-.28.22-.28.6,0,.45.17.53,1.07.53h.71v2.82c0,2.7,0,2.83.19,3,.2.2.65.24.94.09.17-.09.18-.22.18-3v-2.91h.78c.64,0,.81-.03.94-.17.21-.23.2-.62-.03-.85-.18-.17-.31-.18-2.28-.18-1.15,0-2.15.03-2.23.06Zm-14.33,1.32c.28.21.4.67.3,1.16-.09.5-.48.69-1.39.69h-.73s0-1.02,0-1.02v-1.02h.78c.65,0,.83.03,1.03.19Zm5.41,12.47v2.5h-9.67v-2.43c0-1.34.03-2.46.06-2.5.03-.03,2.21-.06,4.83-.06h4.77v2.5Zm3.73,1.41l.02,3.86h-2.35v-3.82c0-2.1.03-3.85.07-3.89.04-.04.55-.05,1.15-.04l1.08.03.02,3.86Zm-3.73,3.17v.69l-12.47-.02c-12.11-.02-12.48-.03-12.67-.2-.26-.23-.26-.73,0-.98.19-.18.31-.18,12.67-.18h12.48v.69Zm16.12-.51c.27.25.27.74,0,.98-.19.17-.44.18-5.58.2l-5.39.03v-1.39h5.38c5.28,0,5.38,0,5.58.19Z"/></svg>