<?xml version="1.0" encoding="UTF-8"?><svg id="Layer_1" xmlns="http://www.w3.org/2000/svg" viewBox="0 0 61 44"><defs><style>.cls-1{fill:#1727a2;fill-rule:evenodd;}</style></defs><path class="cls-1" d="m26.59,5.36l-9.22,5.36h-7.24c-4.36,0-7.5.05-7.88.12-.87.16-1.51.64-1.92,1.43l-.33.64v16.82l.33.64c.41.79,1.05,1.27,1.92,1.43.37.07,3.02.12,6.34.12h5.7v10.25H.49l-.24.26c-.44.48-.25,1.17.4,1.42.46.18,59.26.18,59.72,0,.65-.25.84-.94.4-1.42-.24-.26-.32-.26-2.98-.26h-2.74v-12.06c0-6.63.02-12.06.05-12.06s.56.3,1.19.66c1.3.76,1.72.83,2.09.35.23-.3.25-.47.25-3.18,0-2.55-.02-2.89-.21-3.11-.11-.14-1.47-.98-3.01-1.87-1.54-.89-6.41-3.71-10.82-6.27C38.51,1.12,36.47,0,36.18,0c-.27,0-2.94,1.5-9.59,5.36Zm19.94,2.51l10.24,5.95.03,1.58.03,1.58-5.45-3.16c-3-1.74-7.57-4.39-10.16-5.9-2.8-1.63-4.83-2.73-5.01-2.73s-2.29,1.15-5.19,2.83l-4.89,2.83h-2.6c-1.43,0-2.56-.04-2.51-.09.13-.14,15.01-8.8,15.15-8.82.07,0,4.73,2.67,10.37,5.94Zm-1.79,4.16l8.46,4.92v25.18h-10.01l-.03-7.92-.03-7.92-.31-.25c-.3-.24-.45-.25-3.99-.25h-3.68v-12.87l-.33-.64c-.21-.4-.53-.78-.84-1.01-.5-.36-.54-.36-2.32-.42l-1.81-.06,3.16-1.84c1.74-1.01,3.18-1.83,3.22-1.83.03,0,3.87,2.21,8.52,4.92Zm-11.62.89c.24.26.24.38.24,8.41,0,8.92.03,8.47-.73,8.69-.54.16-29.57.16-30.11,0-.76-.22-.72.23-.73-8.69,0-8.03,0-8.15.24-8.41l.24-.26h30.6l.24.26Zm-26.72,4.32c-1.92.58-2.25,3.54-.52,4.62.47.29.73.36,1.64.43,1.15.08,1.3.17,1.31.75,0,.61-.28.71-1.95.71-.83,0-1.62.05-1.74.12-.57.31-.46,1.48.15,1.64.16.04,1.03.06,1.94.03,1.92-.05,2.37-.21,2.96-1.06.32-.46.36-.6.36-1.46s-.03-.99-.36-1.46c-.53-.77-1.2-1.07-2.32-1.07-.95,0-1.16-.1-1.35-.64-.08-.23.1-.68.33-.83.07-.05.83-.09,1.69-.09,1.4,0,1.58-.03,1.82-.25.17-.16.26-.39.26-.66s-.09-.5-.26-.66c-.24-.22-.41-.25-1.94-.24-.92,0-1.83.06-2.01.11Zm7.33.09c-.15.13-.72,1.55-1.52,3.78-1.2,3.36-1.26,3.59-1.11,3.92.22.46.73.64,1.14.41.34-.19.43-.32.69-.99l.18-.45h2.35l.21.57c.35.97.91,1.24,1.54.74.2-.16.31-.37.31-.57,0-.18-.54-1.84-1.2-3.7-1.25-3.5-1.46-3.92-2.07-3.92-.15,0-.39.09-.52.21Zm4.44.09l-.29.3v7.25l.29.3c.29.29.3.3,2.66.3,2.22,0,2.39-.02,2.69-.25.43-.35.43-.96,0-1.31-.29-.23-.47-.25-2.09-.25h-1.77v-6.13l-.31-.25c-.42-.33-.82-.32-1.18.05Zm6.64-.02c-.25.27-.26.35-.26,3.96v3.68l.28.26c.26.25.37.26,2.65.26,2.53,0,2.68-.03,2.89-.61.13-.36-.09-.99-.4-1.11-.11-.04-.97-.08-1.92-.08h-1.72v-1.42l1.78-.04c1.65-.04,1.8-.06,2.05-.31.32-.32.34-.91.04-1.24-.2-.22-.36-.24-2.05-.24h-1.83v-1.57h1.76c1.87,0,2.07-.06,2.28-.62.13-.36-.09-.99-.4-1.11-.11-.04-1.26-.08-2.55-.08-2.31,0-2.36,0-2.61.28Zm-10.22,4.11c.11.33.19.61.19.63s-.21.04-.48.04-.48-.04-.48-.08c0-.26.42-1.35.48-1.28.04.05.17.36.28.69Zm26.76,13.39v7.29h-10.25v-10.25h.58c1.61,0,2.59-.48,3.14-1.55.29-.56.33-.78.33-1.72v-1.07h6.2v7.29Zm-22.28,2.17v5.12h-2.98v-10.25h2.98v5.12Zm10.22-.03l-.03,5.09-4.2.03-4.2.03v-10.25h8.46l-.03,5.09Zm9.76-3.52c-.3.24-.31.31-.31,1.33,0,1.25.18,1.56.88,1.56.59,0,.83-.34.89-1.26.06-.94-.12-1.55-.52-1.74-.42-.19-.57-.17-.93.11Z"/></svg>